<?xml version="1.0" encoding="UTF-8" standalone="no"?>
<!DOCTYPE svg PUBLIC "-//W3C//DTD SVG 1.1//EN" "http://www.w3.org/Graphics/SVG/1.1/DTD/svg11.dtd">
<svg width="100%" height="100%" viewBox="0 0 222 30" version="1.1" xmlns="http://www.w3.org/2000/svg" xmlns:xlink="http://www.w3.org/1999/xlink" xml:space="preserve" xmlns:serif="http://www.serif.com/" style="fill-rule:evenodd;clip-rule:evenodd;stroke-linejoin:round;stroke-miterlimit:2;">
    <g id="Artboard1" transform="matrix(1.10518,0,0,1,0,0)">
        <rect x="0" y="0" width="200" height="30" style="fill:none;"/>
        <g transform="matrix(0.191134,0,0,-0.211238,9.04827,22.1664)">
            <g id="ink_ext_XXXXXX">
                <path id="path5076" d="M122.389,35.434L121.789,35.449L121.199,35.494L120.619,35.568L120.049,35.67L119.489,35.8L118.929,35.957L118.389,36.139L117.869,36.348L117.349,36.581L116.849,36.837L116.359,37.118L115.889,37.42L115.439,37.745L114.999,38.09L114.569,38.456L114.169,38.841L113.779,39.245L113.419,39.667L113.069,40.107L112.749,40.563L112.449,41.035L112.169,41.522L111.909,42.024L111.679,42.54L111.469,43.068L111.289,43.609L111.129,44.161L110.999,44.724L110.899,45.297L110.819,45.88L110.779,46.471L110.759,47.069C110.759,53.487 115.969,58.694 122.389,58.694C128.819,58.694 134.019,53.487 134.019,47.069C134.019,40.641 128.819,35.434 122.389,35.434Z" style="fill:none;fill-rule:nonzero;"/>
                <g id="path5078" transform="matrix(0.8,0,0,-0.8,0,67.85)">
                    <path d="M165.748,-0.002C123.739,-0.002 89.688,18.983 89.688,42.4C89.688,55.668 100.609,67.502 117.709,75.275C109.628,69.788 104.306,62.302 103.125,53.416C100.44,33.23 119.955,12.596 148.273,3.801C133.586,10.466 123.35,25.228 123.35,42.4C123.35,65.618 141.998,84.446 165.123,84.783C165.086,84.788 165.036,84.798 164.986,84.803C165.249,84.803 165.498,84.813 165.748,84.813C207.761,84.813 241.824,65.828 241.824,42.4C241.824,29.139 230.887,17.303 213.787,9.529L214.537,10.051L215.273,10.582L215.986,11.125L216.686,11.68L217.373,12.246L218.037,12.824L218.686,13.412L219.311,14.012L219.924,14.621L220.512,15.242L221.086,15.873L221.648,16.516L222.186,17.168L222.699,17.83L223.199,18.502L223.674,19.186L224.123,19.879L224.561,20.582L224.986,21.295L225.373,22.018L225.748,22.748L226.1,23.488L226.436,24.238L226.736,24.998L227.023,25.768L227.287,26.545L227.537,27.332L227.748,28.127L227.936,28.932L228.111,29.744L228.262,30.564L228.387,31.395C231.062,51.585 211.549,72.22 183.236,81.014C197.924,74.349 208.162,59.588 208.162,42.4C208.162,19.198 189.512,0.374 166.387,0.033C166.437,0.028 166.487,0.018 166.537,0.008C166.275,0.008 166.011,-0.002 165.748,-0.002ZM152.5,11.313C160.317,11.313 166.75,17.745 166.75,25.562L166.75,25.563C166.75,33.38 160.317,39.813 152.5,39.813C144.683,39.813 138.25,33.38 138.25,25.563L138.25,25.562C138.25,17.745 144.683,11.313 152.5,11.312Z" style="fill:rgb(175,222,255);fill-rule:nonzero;"/>
                </g>
                <path id="path5080" d="M171.029,60.227L171.629,59.81L172.219,59.385L172.789,58.95L173.349,58.506L173.899,58.053L174.429,57.591L174.949,57.121L175.449,56.641L175.939,56.153L176.409,55.657L176.869,55.152L177.319,54.637L177.749,54.116L178.159,53.585L178.559,53.048L178.939,52.501L179.299,51.947L179.649,51.385L179.989,50.815L180.299,50.237L180.599,49.652L180.879,49.059L181.149,48.459L181.389,47.851L181.619,47.236L181.829,46.614L182.029,45.985L182.199,45.348L182.349,44.705L182.489,44.055L182.609,43.398L182.709,42.734C184.849,26.582 169.239,10.074 146.589,3.039C158.339,8.371 166.529,20.18 166.529,33.93C166.529,52.492 151.609,67.55 133.109,67.823C133.149,67.828 133.189,67.836 133.229,67.844C133.019,67.844 132.809,67.852 132.599,67.852C98.991,67.852 71.75,52.664 71.75,33.93C71.75,23.316 80.488,13.848 94.167,7.629C87.702,12.019 83.445,18.008 82.5,25.117C80.352,41.266 95.965,57.773 118.619,64.809C106.869,59.477 98.679,47.668 98.679,33.93C98.679,15.356 113.599,0.293 132.099,0.023C132.069,0.02 132.029,0.012 131.989,0.008C132.199,0.008 132.399,-0 132.599,-0C166.209,-0 193.459,15.188 193.459,33.93C193.459,44.539 184.709,54.008 171.029,60.227Z" style="fill:none;fill-rule:nonzero;"/>
                <path id="path5082" d="M283.458,1.781L249.859,35.383L280.678,66.195L256.748,66.195L237.898,47.348L219.048,66.195L195.109,66.195L225.929,35.383L192.329,1.781L216.259,1.781L237.898,23.418L259.538,1.781L283.458,1.781" style="fill:rgb(175,222,255);fill-rule:nonzero;"/>
                <path id="path5084" d="M283.458,1.781L249.859,35.383L280.678,66.195L256.748,66.195L237.898,47.348L219.048,66.195L195.109,66.195L225.929,35.383L192.329,1.781L216.259,1.781L237.898,23.418L259.538,1.781L283.458,1.781Z" style="fill:none;fill-rule:nonzero;"/>
                <path id="path5086" d="M0,66.195L60.027,66.195L60.027,53.004L18.723,53.004L18.723,41.059L50.93,41.059L50.93,27.863L18.723,27.863L18.723,15.023L61.223,15.023L61.223,1.832L-0,1.832L-0,66.195" style="fill:rgb(175,222,255);fill-rule:nonzero;"/>
                <path id="path5088" d="M0,66.195L60.027,66.195L60.027,53.004L18.723,53.004L18.723,41.059L50.93,41.059L50.93,27.863L18.723,27.863L18.723,15.023L61.223,15.023L61.223,1.832L-0,1.832L-0,66.195Z" style="fill:none;fill-rule:nonzero;"/>
            </g>
        </g>
        <g transform="matrix(0.738058,0,0,1.25985,17.1028,-8.45546)">
            <path d="M71.618,23.968L74.242,23.968L74.242,16.602L74.34,16.602L77.405,22.094L77.65,22.094L80.862,16.649L80.96,16.649L80.96,23.968L83.584,23.968L83.584,12.855L80.519,12.855L77.601,17.999L77.503,17.999L74.732,12.855L71.618,12.855L71.618,23.968Z" style="fill:white;fill-rule:nonzero;"/>
            <path d="M93.023,14.522C94.176,14.522 94.813,14.077 94.813,13.379C94.813,12.68 94.176,12.252 93.023,12.252C91.847,12.252 91.234,12.68 91.234,13.379C91.234,14.077 91.847,14.522 93.023,14.522ZM86.992,23.968L98.54,23.968L98.54,22.444L94.421,22.444L94.421,15.776L87.433,15.776L87.433,17.3L91.626,17.3L91.626,22.444L86.992,22.444L86.992,23.968Z" style="fill:white;fill-rule:nonzero;"/>
            <path d="M102.439,23.968L105.234,23.968L105.234,19.443C105.234,18.078 106.337,17.268 108.103,17.268C109.893,17.268 110.702,17.919 110.702,19.062L110.702,23.968L113.497,23.968L113.497,18.618C113.497,16.776 111.732,15.633 108.936,15.633C107.122,15.633 105.896,16.141 105.234,16.84L105.136,16.84L104.891,15.776L102.439,15.776L102.439,23.968Z" style="fill:white;fill-rule:nonzero;"/>
            <path d="M123.256,24.11C126.296,24.11 128.429,22.967 128.772,21.475L126.026,21.475C125.732,22.142 124.8,22.586 123.256,22.586C121.196,22.586 120.166,21.682 120.166,20.38L128.944,20.38L128.944,19.618C128.944,17.364 126.909,15.633 123.207,15.633C119.21,15.633 117.273,17.522 117.273,19.872C117.273,22.253 119.406,24.11 123.256,24.11ZM120.191,19.094C120.264,18.03 121.171,17.173 123.207,17.173C125.119,17.173 126.026,18.014 126.075,19.094L120.191,19.094Z" style="fill:white;fill-rule:nonzero;"/>
            <path d="M138.335,24.11C142.43,24.11 144.734,22.777 144.734,20.824C144.734,19.078 143.19,18.062 140.051,17.586L137.624,17.221C136.104,16.983 135.393,16.586 135.393,15.84C135.393,14.951 136.471,14.395 138.31,14.395C140.419,14.395 141.424,15.109 141.522,16.157L144.44,16.157C144.416,14.109 142.086,12.712 138.359,12.712C134.559,12.712 132.426,14.062 132.426,15.84C132.426,17.665 133.995,18.491 136.962,18.935L139.365,19.3C140.958,19.538 141.768,19.983 141.768,20.856C141.768,21.872 140.615,22.444 138.335,22.444C136.153,22.444 134.902,21.729 134.78,20.427L131.862,20.427C131.96,22.65 134.142,24.11 138.335,24.11Z" style="fill:white;fill-rule:nonzero;"/>
            <path d="M148.78,23.968L151.771,23.968L153.488,17.792L153.586,17.792L155.204,23.968L158.293,23.968L159.985,15.935L159.985,15.776L157.558,15.776L156.504,21.951L156.405,21.951L154.763,15.776L152.237,15.776L150.594,21.951L150.496,21.951L149.442,15.776L146.99,15.776L146.99,15.935L148.78,23.968Z" style="fill:white;fill-rule:nonzero;"/>
            <path d="M168.788,24.11C171.828,24.11 173.961,22.967 174.304,21.475L171.558,21.475C171.264,22.142 170.332,22.586 168.788,22.586C166.728,22.586 165.698,21.682 165.698,20.38L174.476,20.38L174.476,19.618C174.476,17.364 172.441,15.633 168.739,15.633C164.742,15.633 162.805,17.522 162.805,19.872C162.805,22.253 164.938,24.11 168.788,24.11ZM165.723,19.094C165.796,18.03 166.704,17.173 168.739,17.173C170.651,17.173 171.558,18.014 171.607,19.094L165.723,19.094Z" style="fill:white;fill-rule:nonzero;"/>
            <path d="M183.965,24.11C187.005,24.11 189.139,22.967 189.482,21.475L186.736,21.475C186.441,22.142 185.51,22.586 183.965,22.586C181.905,22.586 180.876,21.682 180.876,20.38L189.653,20.38L189.653,19.618C189.653,17.364 187.618,15.633 183.916,15.633C179.919,15.633 177.982,17.522 177.982,19.872C177.982,22.253 180.116,24.11 183.965,24.11ZM180.9,19.094C180.974,18.03 181.881,17.173 183.916,17.173C185.828,17.173 186.736,18.014 186.785,19.094L180.9,19.094Z" style="fill:white;fill-rule:nonzero;"/>
            <path d="M193.111,27.603L195.906,27.603L195.906,22.983L196.004,22.983C196.641,23.602 197.794,24.11 199.633,24.11C203.041,24.11 204.904,22.317 204.904,19.872C204.904,17.316 202.869,15.633 199.633,15.633C197.794,15.633 196.641,16.141 196.004,16.76L195.906,16.76L195.587,15.776L193.111,15.776L193.111,27.603ZM198.946,22.507C196.69,22.507 195.808,21.285 195.808,19.872C195.808,18.459 196.715,17.237 198.946,17.237C201.227,17.237 202.06,18.443 202.06,19.872C202.06,21.301 201.251,22.507 198.946,22.507Z" style="fill:white;fill-rule:nonzero;"/>
            <path d="M214.32,24.11C217.36,24.11 219.493,22.967 219.837,21.475L217.09,21.475C216.796,22.142 215.864,22.586 214.32,22.586C212.26,22.586 211.23,21.682 211.23,20.38L220.008,20.38L220.008,19.618C220.008,17.364 217.973,15.633 214.271,15.633C210.274,15.633 208.337,17.522 208.337,19.872C208.337,22.253 210.47,24.11 214.32,24.11ZM211.255,19.094C211.328,18.03 212.236,17.173 214.271,17.173C216.183,17.173 217.09,18.014 217.139,19.094L211.255,19.094Z" style="fill:white;fill-rule:nonzero;"/>
            <path d="M223.441,23.968L235.235,23.968L235.235,22.444L229.742,22.444L229.742,19.967C229.742,18.284 230.846,17.348 232.979,17.348L235.284,17.348L235.284,15.665L233.052,15.665C231.459,15.665 230.282,16.236 229.742,17.078L229.644,17.078L229.424,15.776L223.882,15.776L223.882,17.3L226.947,17.3L226.947,22.444L223.441,22.444L223.441,23.968Z" style="fill:white;fill-rule:nonzero;"/>
        </g>
    </g>
</svg>
